<svg width="52" height="44" viewBox="0 0 52 44" fill="none" xmlns="http://www.w3.org/2000/svg">
<g clip-path="url(#clip0_204_46)">
<path d="M36.4537 0.178306C35.6537 -0.221694 35 0.182056 35 1.07706V36.6396L49.5925 43.9358C51.1988 44.7383 52.5 44.1758 52.5 42.6796V8.43456C52.5 8.29081 52.4188 8.15956 52.2913 8.09581L36.4537 0.178306Z" fill="#D0D0D0"/>
<path d="M17.5 27.8883L34.1488 0.835768C34.6175 0.0745174 35.655 -0.221733 36.4537 0.178268L52.3088 8.10577C52.4113 8.15702 52.4475 8.28577 52.3875 8.38327L35 36.6383L17.5 27.8883Z" fill="#A1A1A1"/>
<path d="M2.42249 0.662072C1.08999 -0.00417832 0.638738 0.489571 1.41999 1.75832L17.5 27.8883L35 36.6383L17.5375 8.26207C17.5125 8.22207 17.4775 8.18957 17.435 8.16832L2.42249 0.662072Z" fill="#808080"/>
<path d="M17.5 42.6796C17.5 44.1696 16.41 44.8433 15.0775 44.1771L1.45375 37.3658C0.65375 36.9658 0 35.9071 0 35.0133V1.6183C0 0.425796 0.8725 -0.112954 1.93875 0.420796L17.4062 8.15455C17.4637 8.1833 17.5 8.24205 17.5 8.3058V42.6796Z" fill="#575757"/>
</g>
<defs>
<clipPath id="clip0_204_46">
<rect width="52" height="44" fill="white"/>
</clipPath>
</defs>
</svg>
